<?xml version="1.0" encoding="iso-8859-1"?>
<!-- Generator: Adobe Illustrator 19.0.0, SVG Export Plug-In . SVG Version: 6.00 Build 0)  -->
<svg version="1.1" id="Layer_1" xmlns="http://www.w3.org/2000/svg" xmlns:xlink="http://www.w3.org/1999/xlink" x="0px" y="0px"
	 viewBox="0 0 512 512" style="enable-background:new 0 0 512 512;" xml:space="preserve">
<g>
	<g>
		<path d="M319.213,27.648C302.616,10.078,279.533,0,255.879,0c-46.199,0-85.231,39.074-85.197,86.084l12.1,136.823
			c3.251,56.943,13.32,113.468,29.926,168.03l35.115,115.021c1.092,3.593,4.412,6.042,8.158,6.042h0.009
			c3.763,0,7.066-2.458,8.158-6.059l34.901-115.012c16.606-54.554,26.667-111.078,29.901-167.748L341.195,85.7
			C342.407,64.563,334.599,43.947,319.213,27.648z M231.414,280.149c-0.384,0.051-0.768,0.077-1.143,0.077
			c-4.207,0-7.876-3.106-8.457-7.398c-2.295-17.118-3.959-34.577-4.958-51.866l-12.22-137.387c-0.418-4.702,3.046-8.841,7.74-9.259
			c4.838-0.478,8.849,3.063,9.259,7.74l12.245,137.651c0.981,17.135,2.611,34.15,4.855,50.85
			C239.358,275.226,236.082,279.526,231.414,280.149z M255.981,418.133c-4.71,0-8.533-3.814-8.533-8.533s3.823-8.533,8.533-8.533
			c4.719,0,8.533,3.814,8.533,8.533S260.7,418.133,255.981,418.133z M264.515,196.267c0,4.719-3.814,8.533-8.533,8.533
			c-4.71,0-8.533-3.814-8.533-8.533V51.2c0-4.719,3.823-8.533,8.533-8.533c4.719,0,8.533,3.814,8.533,8.533V196.267z M307.13,83.575
			l-12.254,137.651c-0.956,16.887-2.628,34.33-4.932,51.601c-0.58,4.284-4.241,7.398-8.448,7.398c-0.375,0-0.759-0.026-1.143-0.077
			c-4.668-0.623-7.953-4.915-7.33-9.591c2.253-16.828,3.883-33.852,4.838-50.577l12.262-137.924c0.418-4.676,4.48-8.226,9.259-7.74
			C304.075,74.735,307.54,78.874,307.13,83.575z"/>
	</g>
</g>
<g>
</g>
<g>
</g>
<g>
</g>
<g>
</g>
<g>
</g>
<g>
</g>
<g>
</g>
<g>
</g>
<g>
</g>
<g>
</g>
<g>
</g>
<g>
</g>
<g>
</g>
<g>
</g>
<g>
</g>
</svg>
